<?xml version="1.0" standalone="no"?>
<!DOCTYPE svg PUBLIC "-//W3C//DTD SVG 20010904//EN"
 "http://www.w3.org/TR/2001/REC-SVG-20010904/DTD/svg10.dtd">
<svg version="1.0" xmlns="http://www.w3.org/2000/svg"
 width="1000.000000pt" height="1000.000000pt" viewBox="0 0 1000.000000 1000.000000"
 preserveAspectRatio="xMidYMid meet">
<metadata>
Created by potrace 1.14, written by Peter Selinger 2001-2017
</metadata>
<g transform="translate(0.000000,1000.000000) scale(0.100000,-0.100000)"
fill="#000000" stroke="none">
<path d="M2329 9486 c-2 -3 -31 -7 -64 -11 -136 -14 -363 -73 -500 -128 -146
-59 -390 -202 -506 -297 -408 -334 -670 -804 -736 -1320 -4 -36 -8 -1266 -8
-2735 0 -2063 3 -2688 12 -2750 16 -102 22 -136 29 -154 2 -8 7 -30 10 -50 12
-73 86 -280 145 -401 49 -101 173 -307 198 -330 3 -3 22 -25 41 -50 254 -330
694 -606 1116 -699 233 -52 84 -49 2934 -49 2850 -1 2696 -3 2936 49 256 55
587 213 789 376 172 139 311 290 426 460 66 99 169 296 204 393 15 41 31 84
36 95 10 23 55 202 65 255 32 181 32 199 33 2860 0 1587 -4 2661 -10 2700 -10
74 -31 200 -35 215 -2 6 -6 26 -10 45 -28 156 -161 458 -282 640 -135 203
-256 327 -527 539 -23 17 -191 114 -256 147 -153 77 -415 159 -609 190 -46 8
-5423 17 -5431 10z"/>
</g>
</svg>
